<?xml version="1.0" encoding="utf-8"?>
<!-- Uploaded to: SVG Repo, www.svgrepo.com, Generator: SVG Repo Mixer Tools -->
<svg width="800px" height="800px" viewBox="0 0 1024 1024" class="icon"  version="1.1" xmlns="http://www.w3.org/2000/svg"><path d="M673.53 70.728L698.418 64l19.768 16.546-28.531 23.238z" fill="#152B3C" /><path d="M692.581 90.54L583.637 585.477 718.186 80.546z" fill="#152B3C" /><path d="M692.581 90.54L583.637 585.477 673.53 70.728z" fill="#0DB14B" /><path d="M834.907 122.766l25.724 1.683 13.368 22.037-34.491 12.774z" fill="#152B3C" /><path d="M846.552 147.649L583.637 580.925l290.362-434.439z" fill="#152B3C" /><path d="M846.552 147.649L583.637 580.925l251.27-458.159z" fill="#0DB14B" /><path d="M607.474 849.492H416.557L358.471 960h307.082z" fill="#FF3B30" /><path d="M412.63 842.355l-26.223 49.887c43.233 22.791 91.304 35.591 142.007 35.591 38.219 0 74.916-7.32 109.209-20.639l-34.076-64.839H412.63z" fill="#A82526" /><path d="M709.201 422.07c-1.826 0-3.606 0.102-5.412 0.149-19.837-10.166-46.557-16.44-76.043-16.44-40.262 0-75.397 11.663-94.765 29.044-18.797-7.962-42.414-12.753-68.143-12.753-1.828 0-3.606 0.102-5.411 0.149-19.838-10.166-46.559-16.44-76.044-16.44-43.559 0-81.131 13.64-99.195 33.421-52.674 4.599-92.944 29.23-92.944 59.013 0 33.057 49.555 59.853 110.684 59.853 40.262 0 75.397-11.663 94.765-29.044 18.797 7.965 42.414 12.753 68.144 12.753 1.826 0 3.607-0.099 5.411-0.146 19.837 10.162 46.559 16.437 76.043 16.437 40.262 0 75.397-11.663 94.766-29.044 18.797 7.965 42.414 12.753 68.144 12.753 61.128 0 110.684-26.797 110.684-59.853s-49.556-59.852-110.684-59.852z" fill="#FCB814" /><path d="M852.425 529.406c0 215.574-152.412 390.327-340.404 390.327-188.003 0-340.411-174.753-340.411-390.327h680.815z" fill="#FF3B30" /><path d="M423.309 857.612a14.81 14.81 0 0 1-8.21-2.472c-90.701-59.885-152.242-161.985-168.853-280.123-1.153-8.167 4.543-15.72 12.71-16.866 8.173-1.189 15.713 4.535 16.866 12.71 15.414 109.66 72.18 204.188 155.728 259.358 6.883 4.543 8.779 13.81 4.237 20.685-2.875 4.353-7.629 6.708-12.478 6.708z" fill="#FFFFFF" /><path d="M228.596 529.406h-56.991c0 167.407 91.922 310.141 221.03 365.583L358.471 960h25.705l28.436-65.011c-107.484-55.441-184.016-198.175-184.016-365.583zM852.419 529.406h-56.998c0 2.77-0.081 5.515-0.118 8.261H237.65l556.36 30.076c-10.665 150.601-83.43 276.096-182.61 327.27L639.831 960h25.721l-34.157-64.987c129.104-55.465 221.024-198.199 221.024-365.607z" fill="#030504" /><path d="M873.999 520.527c0 9.472-7.674 17.141-17.147 17.141h-689.7C157.68 537.668 150 530 150 520.527c0-9.486 7.68-17.152 17.152-17.152h689.7c9.473-0.001 17.147 7.666 17.147 17.152z" fill="#FF3B30" /></svg>